<svg width="123" height="123" viewBox="0 0 123 123" fill="none" xmlns="http://www.w3.org/2000/svg">
<path d="M61.5 0C27.5898 0 0 27.5875 0 61.5C0 95.4125 27.5898 123 61.5 123C95.4102 123 123 95.4125 123 61.5C123 27.5875 95.4102 0 61.5 0ZM61.5 118.269C30.1989 118.269 4.73077 92.8011 4.73077 61.5C4.73077 30.1989 30.1989 4.73077 61.5 4.73077C92.8011 4.73077 118.269 30.1989 118.269 61.5C118.269 92.8011 92.8011 118.269 61.5 118.269Z" fill="#EF801C"/>
<path d="M84.4607 38.5391C83.5359 37.6142 82.041 37.6142 81.1161 38.5391L61.5 58.1552L41.8838 38.5391C40.959 37.6142 39.464 37.6142 38.5392 38.5391C37.6143 39.464 37.6143 40.9589 38.5392 41.8838L58.1553 61.4999L38.5392 81.116C37.6143 82.0409 37.6143 83.5358 38.5392 84.4607C39.0004 84.9219 39.606 85.1537 40.2115 85.1537C40.817 85.1537 41.4226 84.9219 41.8838 84.4607L61.5 64.8445L81.1161 84.4607C81.5773 84.9219 82.1829 85.1537 82.7884 85.1537C83.394 85.1537 83.9995 84.9219 84.4607 84.4607C85.3856 83.5358 85.3856 82.0409 84.4607 81.116L64.8446 61.4999L84.4607 41.8838C85.3856 40.9589 85.3856 39.464 84.4607 38.5391Z" fill="#EF801C"/>
</svg>
