<svg width="1416" height="314" viewBox="0 0 1416 314" fill="none" xmlns="http://www.w3.org/2000/svg">
<path d="M837.205 191.911H869.852V54.9166H774.124V71.4505C774.124 131.09 766.931 153.529 744.797 161.796V191.321C753.097 190.14 804.004 181.282 804.558 92.7083V83.8509H838.312V191.911H837.205Z" fill="white"/>
<path d="M654.603 191.911H687.25V85.0319H746.458V54.9166H654.603V191.911Z" fill="white"/>
<path d="M968.9 53.7319H936.806L883.132 191.908H917.439L927.399 166.516H977.753L987.714 191.908H1022.57L968.9 53.7319ZM936.806 139.944L952.853 96.838L968.9 139.944H936.806Z" fill="white"/>
<path d="M1192.45 54.9166H1159.8V191.911H1190.79L1247.78 112.195V191.911H1279.88V54.9166H1248.89L1192.45 136.405V54.9166Z" fill="white"/>
<path d="M1408.81 136.995V110.423H1341.85V87.3938H1414.89V54.9166H1309.76V191.911H1416V162.387H1341.85V136.995H1408.81Z" fill="white"/>
<path d="M569.941 52.5511C547.254 52.5511 527.334 64.361 514.607 82.6663C500.22 103.334 481.407 160.021 442.673 160.021C418.326 160.021 405.046 140.535 406.706 120.458C408.366 99.7907 424.966 84.4378 443.779 86.2093C454.293 86.7998 463.146 92.7048 469.233 101.562L488.6 73.2184C477.533 61.4086 463.146 53.7321 446.546 52.5511C409.472 49.5987 377.932 79.1234 375.165 118.687C372.399 158.25 400.066 191.908 437.139 194.86C439.353 194.86 442.119 194.86 444.333 194.86H444.886C460.38 194.86 478.087 187.774 489.707 178.326C498.56 171.241 505.2 163.564 510.734 155.888C521.801 178.917 545.041 194.86 571.048 194.86C608.122 194.86 638.002 162.974 638.002 123.41C636.895 84.4378 607.015 52.5511 569.941 52.5511ZM579.901 158.84C576.581 160.021 573.261 160.612 569.388 160.612C555.001 160.612 542.828 151.164 537.294 138.173C535.634 133.449 534.527 128.725 534.527 124.001C534.527 118.686 535.634 113.963 537.294 109.829C542.828 96.2477 555.001 87.3903 569.388 87.3903C572.708 87.3903 576.581 87.9808 579.901 89.1618C594.288 93.8857 604.248 107.467 604.248 124.591C604.802 140.535 594.288 154.116 579.901 158.84Z" fill="white"/>
<path d="M1117.75 149.397L1114.98 152.35C1108.34 158.845 1100.04 161.798 1091.19 161.798C1071.27 161.798 1055.22 144.673 1055.22 123.416C1055.22 102.158 1071.27 85.0335 1091.19 85.0335C1101.15 85.0335 1111.11 89.7574 1117.75 98.0243L1118.85 96.8433L1134.9 73.2236C1122.73 60.2327 1106.13 53.1467 1089.53 53.1467C1053.01 53.1467 1023.68 85.0335 1023.68 123.416C1023.68 162.388 1053.56 193.684 1089.53 193.684C1107.79 193.684 1125.49 185.418 1138.22 170.065L1117.75 149.397Z" fill="white"/>
<path d="M858.785 291.708C848.825 291.708 841.632 282.851 841.632 272.222C841.632 261.593 848.825 252.735 858.232 252.735C864.319 252.735 868.745 255.688 872.619 259.821L877.045 254.507C872.619 249.783 867.085 245.65 858.232 245.65C844.398 245.65 834.438 257.459 834.438 271.631C834.438 285.803 844.952 297.613 858.232 297.613C867.085 297.613 872.619 293.48 877.599 288.165L873.172 283.441C869.298 288.165 864.872 291.708 858.785 291.708Z" fill="white"/>
<path d="M924.079 246.827H883.685V253.913H900.286V297.019H907.479V253.913H924.079V246.827Z" fill="white"/>
<path d="M959.494 246.234C950.64 246.234 945.107 251.548 941.787 257.453V247.415H934.593V312.96H941.787V288.159C945.66 293.474 951.194 298.788 959.494 298.788C970.561 298.788 981.627 289.34 981.627 272.806C981.627 255.682 970.561 246.234 959.494 246.234ZM957.834 291.112C948.98 291.112 940.68 283.435 940.68 271.625C940.68 259.815 948.98 252.139 957.834 252.139C966.687 252.139 974.434 259.815 974.434 271.625C974.434 284.026 967.241 291.112 957.834 291.112Z" fill="white"/>
<path d="M1013.72 246.234C1007.08 246.234 1002.1 248.006 996.567 250.367L998.78 256.272C1003.21 253.91 1007.63 252.729 1013.17 252.729C1022.02 252.729 1027 257.453 1027 266.311V268.082C1022.57 266.901 1018.7 265.72 1012.61 265.72C1000.99 265.72 992.694 271.035 992.694 282.254C992.694 292.883 1001.55 298.197 1010.4 298.197C1018.7 298.197 1024.23 294.064 1027 289.931V297.607H1033.64V266.311C1033.64 259.815 1031.98 255.091 1028.66 251.548C1025.34 248.005 1020.36 246.234 1013.72 246.234ZM1027 278.711C1027 286.388 1019.81 292.293 1011.51 292.293C1005.42 292.293 999.887 288.75 999.887 282.254C999.887 276.349 1004.87 272.216 1013.72 272.216C1019.25 272.216 1023.68 273.397 1027.55 274.578V278.711H1027Z" fill="white"/>
<path d="M1066.84 266.313L1053.01 246.827H1045.26L1062.97 271.628L1044.16 297.019H1052.46L1066.84 276.352L1081.23 297.019H1089.53L1070.72 271.628L1088.42 246.827H1080.68L1066.84 266.313Z" fill="white"/>
<path d="M1118.85 246.234C1104.47 246.234 1094.51 258.044 1094.51 272.216C1094.51 286.388 1104.47 298.197 1118.85 298.197C1133.24 298.197 1143.2 286.388 1143.2 272.216C1143.2 258.044 1132.69 246.234 1118.85 246.234ZM1118.85 291.702C1108.89 291.702 1101.7 282.845 1101.7 272.216C1101.7 261.587 1108.89 252.729 1118.85 252.729C1128.82 252.729 1136.01 261.587 1136.01 272.216C1136.01 282.845 1128.82 291.702 1118.85 291.702Z" fill="white"/>
<path d="M1185.81 271.039C1189.68 269.268 1193.56 266.315 1193.56 259.82C1193.56 252.143 1187.47 247.419 1178.06 247.419H1155.38V297.611H1178.62C1189.13 297.611 1195.77 292.297 1195.77 284.03C1195.77 276.354 1191.34 272.811 1185.81 271.039ZM1162.57 253.324H1176.96C1183.04 253.324 1186.36 256.277 1186.36 260.41C1186.36 265.725 1182.49 268.677 1176.96 268.677H1162.57V253.324ZM1178.06 290.526H1162.57V274.582H1177.51C1185.26 274.582 1189.13 277.535 1189.13 282.259C1188.58 287.573 1184.7 290.526 1178.06 290.526Z" fill="white"/>
<path d="M1226.2 246.234C1219.56 246.234 1214.58 248.006 1209.05 250.367L1211.26 256.272C1215.69 253.91 1220.12 252.729 1225.65 252.729C1234.5 252.729 1239.48 257.453 1239.48 266.311V268.082C1235.06 266.901 1231.18 265.72 1225.1 265.72C1213.48 265.72 1205.18 271.035 1205.18 282.254C1205.18 292.883 1214.03 298.197 1222.88 298.197C1231.18 298.197 1236.72 294.064 1239.48 289.931V297.607H1246.12V266.311C1246.12 259.815 1244.46 255.091 1241.14 251.548C1237.82 248.005 1232.84 246.234 1226.2 246.234ZM1239.48 278.711C1239.48 286.388 1232.29 292.293 1223.99 292.293C1217.9 292.293 1212.37 288.75 1212.37 282.254C1212.37 276.349 1217.35 272.216 1226.2 272.216C1231.74 272.216 1236.16 273.397 1240.04 274.578V278.711H1239.48Z" fill="white"/>
<path d="M1267.7 246.827H1261.06V297.019H1267.7V275.171H1294.82V297.019H1302.01V246.827H1294.82V268.675H1267.7V246.827Z" fill="white"/>
<path d="M1324.15 297.019L1351.81 257.456V297.019H1359.01V246.827H1352.37L1324.15 286.39V246.827H1317.51V297.019H1324.15Z" fill="white"/>
<path d="M1393.87 246.234C1381.14 246.234 1371.18 258.044 1371.18 272.216C1371.18 287.569 1381.69 298.197 1394.42 298.197C1403.27 298.197 1408.81 294.655 1413.79 288.75L1409.36 284.616C1405.49 288.75 1401.06 291.702 1394.42 291.702C1386.12 291.702 1378.93 285.797 1377.82 275.168H1414.89C1414.89 273.987 1414.89 273.397 1414.89 272.806C1416 258.044 1407.7 246.234 1393.87 246.234ZM1378.93 269.263C1380.03 259.815 1386.12 252.729 1393.87 252.729C1403.27 252.729 1408.25 260.406 1408.81 269.263H1378.93Z" fill="white"/>
<path d="M228.53 0.590495C208.61 0.590495 188.689 5.90493 171.536 16.5338C154.382 5.90493 134.462 -3.60409e-05 114.542 -3.60409e-05C51.4607 -3.60409e-05 3.37733e-05 54.916 3.37733e-05 122.232C3.37733e-05 189.549 51.4607 244.465 114.542 244.465C134.462 244.465 154.382 238.56 171.536 227.931C188.689 238.56 208.61 243.874 228.53 243.874C291.611 243.874 343.071 188.958 343.071 121.642C343.071 54.916 291.611 0.590495 228.53 0.590495ZM78.5744 122.232C76.9144 127.547 76.361 132.861 76.361 138.176C76.361 167.11 98.4947 190.73 125.608 190.73C143.315 190.73 159.362 180.691 168.216 164.748L168.769 164.157C169.322 162.976 169.876 161.796 170.429 160.615L200.309 98.6126L200.863 97.4316C204.183 90.9361 210.27 86.8027 217.463 86.8027C227.423 86.8027 235.723 95.6601 235.723 106.289V106.88V107.47C235.723 115.737 231.85 133.452 206.95 160.024C175.409 194.273 146.082 204.902 146.082 205.492C136.122 210.216 125.055 211.988 113.988 211.988C67.5076 211.988 29.8804 171.834 29.8804 122.232C29.8804 72.6309 67.5076 32.4772 113.988 32.4772C122.842 32.4772 131.142 33.6582 139.442 36.6107C107.901 63.7734 87.4279 92.7077 78.5744 122.232ZM263.944 122.823C265.604 117.508 266.157 112.194 266.157 106.289C266.157 77.3548 244.023 53.735 216.91 53.735C199.756 53.735 183.156 63.7734 174.302 79.7167L173.749 81.4882C173.196 82.0787 172.642 83.2598 172.642 83.8503L141.655 148.214C138.335 154.71 132.248 158.253 125.608 158.253C115.648 158.253 107.348 149.395 107.348 138.766V138.176C107.348 129.909 111.775 112.194 136.122 85.0312C167.662 50.7825 196.436 40.7441 196.989 40.7441C207.503 36.0202 218.016 33.6582 229.637 33.6582C276.117 33.6582 313.744 73.8118 313.744 123.413C313.744 173.015 276.117 213.169 229.637 213.169C220.783 213.169 211.93 211.988 203.629 209.035C235.17 181.282 255.644 152.938 263.944 122.823Z" fill="white"/>
</svg>
