<svg width="20" height="20" viewBox="0 0 20 20" fill="none" xmlns="http://www.w3.org/2000/svg">
<path d="M17.12 17.0133C18.9067 15.2 20 12.72 20 10C20 4.48 15.52 3.8147e-06 10 3.8147e-06C4.48 3.8147e-06 0 4.48 0 10C0 12.72 1.09333 15.2 2.88 17.0133C2.90666 17.04 2.90667 17.04 2.93333 17.0667C4.74667 18.88 7.25333 20 10 20C12.7467 20 15.2533 18.88 17.0667 17.0667C17.0933 17.0667 17.12 17.04 17.12 17.0133ZM10 0.773336C15.0933 0.773336 19.2267 4.90667 19.2267 10C19.2267 12.4533 18.2667 14.6667 16.72 16.32L12.6933 14.5333C14.3467 12.88 14.3733 10.48 14.3733 10.3733V6.88C14.3733 6.85333 14.3733 6.82667 14.3733 6.8C14.0267 4.90667 11.84 3.65333 10.0267 3.65333H10C8.18667 3.68 6 4.93334 5.68 6.8C5.68 6.82667 5.68 6.85333 5.68 6.88V10.3733C5.68 10.48 5.70667 12.88 7.36 14.5333L3.33333 16.32C1.78667 14.6667 0.826668 12.4533 0.826668 10C0.773335 4.93334 4.90667 0.773336 10 0.773336ZM3.86667 16.9067L8.16 15.0133H8.18667C8.18667 15.0133 8.18666 15.0133 8.21333 15.0133C8.24 14.9867 8.29334 14.96 8.32 14.9333C8.34667 14.9067 8.37333 14.8533 8.37333 14.8C8.37333 14.8 8.37333 14.8 8.37333 14.7733C8.37333 14.72 8.37333 14.6933 8.37333 14.64C8.37333 14.64 8.37333 14.64 8.37333 14.6133C8.37333 14.5867 8.37333 14.56 8.34666 14.5067V14.48C8.34666 14.48 8.34666 14.48 8.34666 14.4533C8.32 14.4267 8.29333 14.3733 8.26667 14.3467C6.45333 12.9333 6.42667 10.4 6.42667 10.3733V6.90667C6.69334 5.57334 8.34667 4.42666 10.0267 4.42666H10.0533C11.7067 4.45333 13.36 5.6 13.6267 6.90667V10.3733C13.6267 10.4 13.6 12.9333 11.7867 14.3467C11.76 14.3733 11.7333 14.4 11.7067 14.4533C11.7067 14.4533 11.7067 14.4533 11.7067 14.48V14.5067C11.68 14.5333 11.68 14.56 11.68 14.6133C11.68 14.6133 11.68 14.6133 11.68 14.64C11.68 14.6933 11.68 14.72 11.68 14.7733C11.68 14.7733 11.68 14.7733 11.68 14.8C11.68 14.8533 11.7067 14.88 11.7333 14.9333C11.7333 14.96 11.76 14.96 11.76 14.9867L11.7867 15.0133C11.8133 15.0133 11.8133 15.04 11.84 15.04C11.84 15.04 11.8667 15.04 11.8667 15.0667L16.16 16.96C14.5333 18.4 12.3733 19.3067 10.0267 19.3067C7.65334 19.2533 5.52 18.3467 3.86667 16.9067Z" fill="white"/>
</svg>
